<svg width="68" height="61" viewBox="0 0 68 61" fill="none" xmlns="http://www.w3.org/2000/svg">
<path d="M66.1261 36.9018L37.7621 19.956L39.8929 16.3887L41.2553 17.2023C41.5293 17.3657 41.8571 17.4137 42.1665 17.3357C42.4759 17.2577 42.7417 17.0602 42.9056 16.7864L45.561 12.342C45.7244 12.0679 45.7724 11.7402 45.6944 11.4308C45.6164 11.1214 45.4189 10.8556 45.1451 10.6917L27.5302 0.169915C27.2561 0.00651949 26.9284 -0.0414529 26.619 0.0365299C26.3096 0.114513 26.0438 0.312077 25.8799 0.585855L23.2254 5.03219C23.0617 5.3062 23.0136 5.63399 23.0916 5.94347C23.1696 6.25295 23.3673 6.51877 23.6413 6.68248L37.8266 15.1554L28.9686 29.9906L18.209 23.5666L24.7158 12.6742C24.8743 12.4004 24.9187 12.0752 24.8393 11.769C24.7599 11.4627 24.5631 11.2001 24.2915 11.0378C24.0199 10.8756 23.6954 10.8268 23.3881 10.902C23.0808 10.9773 22.8155 11.1705 22.6496 11.4398L16.1418 22.3323L14.7785 21.5177C14.5044 21.3543 14.1767 21.3064 13.8673 21.3843C13.5579 21.4623 13.2921 21.6599 13.1282 21.9337L10.4862 26.3588C10.3225 26.6328 10.2744 26.9606 10.3524 27.2701C10.4304 27.5796 10.6282 27.8454 10.9021 28.0091L28.5171 38.5299C28.7911 38.6936 29.1189 38.7417 29.4283 38.6637C29.7378 38.5857 30.0036 38.3879 30.1673 38.114L32.8093 33.6917C32.8906 33.5559 32.9442 33.4055 32.9673 33.2489C32.9903 33.0924 32.9823 32.9329 32.9437 32.7794C32.905 32.626 32.8366 32.4817 32.7421 32.3547C32.6477 32.2278 32.5292 32.1206 32.3934 32.0395L31.03 31.2249L36.5278 22.0261L64.8917 38.9719C65.0537 39.0686 65.195 39.1963 65.3077 39.3476C65.4203 39.499 65.502 39.671 65.5481 39.8539C65.5943 40.0369 65.6039 40.2271 65.5765 40.4137C65.5492 40.6004 65.4853 40.7798 65.3885 40.9418C65.2918 41.1038 65.1641 41.2451 65.0128 41.3577C64.8615 41.4704 64.6894 41.5521 64.5065 41.5982C64.3235 41.6443 64.1333 41.654 63.9467 41.6266C63.76 41.5992 63.5806 41.5353 63.4186 41.4386L38.5661 26.5889C38.4304 26.5053 38.2793 26.4495 38.1219 26.4247C37.9644 26.3999 37.8035 26.4067 37.6487 26.4446C37.4938 26.4825 37.348 26.5508 37.2198 26.6456C37.0915 26.7403 36.9834 26.8595 36.9016 26.9964C36.8199 27.1333 36.7661 27.285 36.7435 27.4428C36.7209 27.6007 36.7298 27.7614 36.7698 27.9157C36.8099 28.07 36.8801 28.2149 36.9766 28.3418C37.0731 28.4688 37.1938 28.5753 37.3317 28.6552L62.1852 43.502C63.0605 44.0247 64.1075 44.1783 65.096 43.929C66.0845 43.6798 66.9335 43.048 67.4562 42.1728C67.9789 41.2975 68.1326 40.2505 67.8833 39.262C67.634 38.2735 67.0023 37.4245 66.127 36.9018H66.1261ZM27.3289 2.85524L42.8767 12.1427L41.4555 14.5209L25.9116 5.23342L27.3289 2.85524ZM28.7173 35.8465L13.1696 26.5591L14.5772 24.203L15.9396 25.0166L30.124 33.4895L28.7173 35.8465Z" fill="white"/>
<path d="M40.484 52.2204H38.023V51.7264C38.0205 49.3961 37.0936 47.1619 35.4458 45.514C33.7979 43.8662 31.5637 42.9393 29.2334 42.9368H12.4542C10.124 42.9396 7.89 43.8666 6.24238 45.5144C4.59477 47.1622 3.66803 49.3962 3.66548 51.7264V52.2204H1.20353C0.884337 52.2204 0.578214 52.3472 0.352508 52.5729C0.126801 52.7986 0 53.1047 0 53.4239V59.0228C0 59.342 0.126801 59.6481 0.352508 59.8738C0.578214 60.0995 0.884337 60.2263 1.20353 60.2263H40.4869C40.8061 60.2263 41.1122 60.0995 41.3379 59.8738C41.5636 59.6481 41.6904 59.342 41.6904 59.0228V53.4239C41.6904 53.2656 41.6592 53.1089 41.5985 52.9627C41.5379 52.8165 41.4489 52.6837 41.3369 52.5719C41.2248 52.4601 41.0918 52.3715 40.9454 52.3112C40.7991 52.2509 40.6423 52.22 40.484 52.2204ZM39.2805 57.8192H2.40418V54.6274H12.9375C13.2567 54.6274 13.5628 54.5006 13.7885 54.2749C14.0142 54.0492 14.141 53.7431 14.141 53.4239C14.141 53.1047 14.0142 52.7986 13.7885 52.5729C13.5628 52.3472 13.2567 52.2204 12.9375 52.2204H6.07255V51.7264C6.07433 50.0344 6.74722 48.4121 7.94359 47.2156C9.13997 46.019 10.7621 45.3459 12.4542 45.3439H29.2334C30.9256 45.3457 32.548 46.0187 33.7445 47.2153C34.9411 48.4118 35.6142 50.0342 35.6159 51.7264V52.2204H18.5941C18.2749 52.2204 17.9688 52.3472 17.7431 52.5729C17.5174 52.7986 17.3906 53.1047 17.3906 53.4239C17.3906 53.7431 17.5174 54.0492 17.7431 54.2749C17.9688 54.5006 18.2749 54.6274 18.5941 54.6274H39.2805V57.8192Z" fill="white"/>
</svg>
