<svg width="512" height="512" viewBox="0 0 512 512" fill="none" xmlns="http://www.w3.org/2000/svg">
<path d="M416.07 272C416.07 240.355 406.686 209.421 389.105 183.109C371.524 156.797 346.535 136.289 317.299 124.179C288.063 112.069 255.892 108.901 224.855 115.074C193.818 121.248 165.309 136.486 142.933 158.863C120.556 181.239 105.318 209.749 99.1443 240.786C92.9706 271.822 96.1391 303.993 108.249 333.229C120.359 362.465 140.867 387.454 167.179 405.035C193.491 422.616 224.425 432 256.07 432C298.505 432 339.201 415.143 369.207 385.137C399.213 355.131 416.07 314.435 416.07 272Z" stroke="white" stroke-width="32" stroke-miterlimit="10"/>
<path d="M142.12 91.21C133.724 84.0252 123.051 80.0529 112 80L109.21 80.08C83.66 81.62 64 104 64.07 131C64.07 144.21 68.73 150.37 74.95 158.23C75.3364 158.735 75.8244 159.154 76.3824 159.458C76.9405 159.763 77.5563 159.948 78.19 160H79.07C79.5655 159.991 80.0523 159.868 80.4928 159.641C80.9332 159.414 81.3155 159.089 81.61 158.69L142.38 99C142.899 98.4752 143.304 97.8493 143.571 97.1612C143.838 96.473 143.96 95.7374 143.93 95C143.905 94.2778 143.731 93.5686 143.42 92.9165C143.108 92.2644 142.666 91.6835 142.12 91.21V91.21Z" stroke="white" stroke-width="32" stroke-miterlimit="10"/>
<path d="M369.88 91.21C378.276 84.0252 388.95 80.0529 400 80L402.79 80.08C428.34 81.62 448 104 447.93 131C447.93 144.21 443.27 150.37 437.05 158.23C436.663 158.733 436.174 159.15 435.616 159.453C435.058 159.756 434.443 159.939 433.81 159.99H432.93C432.435 159.981 431.948 159.858 431.507 159.631C431.067 159.404 430.685 159.079 430.39 158.68L369.62 99C369.101 98.4752 368.696 97.8493 368.429 97.1612C368.162 96.473 368.04 95.7374 368.07 95C368.095 94.2778 368.269 93.5686 368.58 92.9165C368.892 92.2644 369.334 91.6835 369.88 91.21V91.21Z" stroke="white" stroke-width="32" stroke-miterlimit="10"/>
<path d="M256.07 160V272H176.07" stroke="white" stroke-width="32" stroke-linecap="round" stroke-linejoin="round"/>
<path d="M416.07 432L376.07 392" stroke="white" stroke-width="32" stroke-linecap="round" stroke-linejoin="round"/>
<path d="M96.0698 432L136.07 392" stroke="white" stroke-width="32" stroke-linecap="round" stroke-linejoin="round"/>
</svg>
